<?xml version="1.0" encoding="utf-8"?>
<!-- Generator: Adobe Illustrator 16.0.0, SVG Export Plug-In . SVG Version: 6.00 Build 0)  -->
<!DOCTYPE svg PUBLIC "-//W3C//DTD SVG 1.1//EN" "http://www.w3.org/Graphics/SVG/1.1/DTD/svg11.dtd">
<svg version="1.1" id="Ebene_1" xmlns="http://www.w3.org/2000/svg" xmlns:xlink="http://www.w3.org/1999/xlink" x="0px" y="0px"
	 width="173.19px" height="168.119px" viewBox="36.448 40.94 173.19 168.119" enable-background="new 36.448 40.94 173.19 168.119"
	 xml:space="preserve">
<g>
	<path fill="#E12D2D" d="M40.258,58.842c0-4.854,1.772-9.047,5.306-12.596c3.547-3.533,7.791-5.307,12.724-5.307
		c5.019,0,9.303,1.773,12.85,5.307c3.541,3.463,5.311,7.703,5.311,12.723c0,5.021-1.77,9.305-5.311,12.844
		c-3.459,3.541-7.705,5.312-12.727,5.312s-9.299-1.771-12.847-5.312C42.031,68.274,40.258,63.952,40.258,58.842z"/>
	<rect x="44.457" y="85.317" fill="#131108" width="27.788" height="120.285"/>
	<path fill="#131108" d="M81.333,144.594c0-17.371,6.213-32.156,18.639-44.334c12.433-12.186,27.59-18.283,45.452-18.283
		c17.94,0,33.174,6.131,45.687,18.406c12.358,12.268,18.528,27.332,18.528,45.201c0,18.023-6.218,33.139-18.648,45.324
		c-12.513,12.104-27.877,18.15-46.063,18.15c-18.031,0-33.146-6.178-45.323-18.527C87.415,178.352,81.333,163.034,81.333,144.594z
		 M109.738,145.09c0,12.021,3.198,21.529,9.616,28.525c6.587,7.08,15.28,10.621,26.071,10.621c10.854,0,19.555-3.502,26.053-10.5
		c6.515-6.998,9.755-16.34,9.755-28.033c0-11.689-3.24-21.041-9.755-28.037c-6.589-7.078-15.271-10.621-26.053-10.621
		c-10.62,0-19.23,3.543-25.819,10.621C113.025,124.752,109.738,133.891,109.738,145.09z"/>
</g>
</svg>
